<!DOCTYPE svg PUBLIC "-//W3C//DTD SVG 1.1//EN" "http://www.w3.org/Graphics/SVG/1.1/DTD/svg11.dtd">
<!-- Uploaded to: SVG Repo, www.svgrepo.com, Transformed by: SVG Repo Mixer Tools -->
<svg fill="#000000" width="800px" height="800px" viewBox="0 0 256 256" id="Flat" xmlns="http://www.w3.org/2000/svg">
<g id="SVGRepo_bgCarrier" stroke-width="0"/>
<g id="SVGRepo_tracerCarrier" stroke-linecap="round" stroke-linejoin="round"/>
<g id="SVGRepo_iconCarrier"> <path d="M128,24A104,104,0,1,0,232,128,104.12041,104.12041,0,0,0,128,24ZM80,140a12,12,0,1,1,12-12A12.0006,12.0006,0,0,1,80,140Zm48,0a12,12,0,1,1,12-12A12.0006,12.0006,0,0,1,128,140Zm48,0a12,12,0,1,1,12-12A12.0006,12.0006,0,0,1,176,140Z"/> </g>
</svg>